<svg
  xmlns="http://www.w3.org/2000/svg"
  xmlns:xlink="http://www.w3.org/1999/xlink" viewBox="0 0 1809 723.57">
  <defs>
    <style>.cls-1{opacity:0.4;fill:url(#Degradado_sin_nombre);}.cls-1,.cls-2{isolation:isolate;}.cls-2{opacity:0.5;fill:url(#Degradado_sin_nombre-2);}.cls-3{fill:url(#Degradado_sin_nombre-3);}.cls-4{fill:#fff;}.cls-5{fill:url(#Degradado_sin_nombre_4);}.cls-6{fill:url(#Degradado_sin_nombre_5);}.cls-7{fill:#2391bc;}.cls-8{fill:url(#Degradado_sin_nombre_4-2);}.cls-9{fill:url(#Degradado_sin_nombre_4-3);}.cls-10{fill:none;stroke:#239dbc;stroke-miterlimit:10;stroke-width:2.01px;stroke-dasharray:6.37 6.37 6.37 6.37 6.37 6.37;}</style>
    <linearGradient id="Degradado_sin_nombre" x1="401.18" y1="576.47" x2="735.83" y2="177.66" gradientTransform="matrix(1, 0, 0, -1, 0, 747.13)" gradientUnits="userSpaceOnUse">
      <stop offset="0" stop-color="#fff"/>
      <stop offset="0" stop-color="#ededed"/>
      <stop offset="0" stop-color="#23abbc"/>
      <stop offset="1" stop-color="#2392bc"/>
    </linearGradient>
    <linearGradient id="Degradado_sin_nombre-2" x1="4420.56" y1="-592.46" x2="4659.17" y2="-876.82" gradientTransform="matrix(-1, 0, 0, 1, 5108.37, 1107.71)" xlink:href="#Degradado_sin_nombre"/>
    <linearGradient id="Degradado_sin_nombre-3" x1="503.07" y1="452.55" x2="633.94" y2="296.58" xlink:href="#Degradado_sin_nombre"/>
    <linearGradient id="Degradado_sin_nombre_4" x1="-7324.97" y1="-7818.43" x2="-7233.46" y2="-7818.43" gradientTransform="matrix(2, 0, 0, -2, 14808.51, -15314.04)" gradientUnits="userSpaceOnUse">
      <stop offset="0" stop-color="#2391bc"/>
      <stop offset="0.52" stop-color="#239dbc"/>
      <stop offset="1" stop-color="#23acbc"/>
    </linearGradient>
    <linearGradient id="Degradado_sin_nombre_5" x1="-7293.17" y1="-7818.48" x2="-7264.73" y2="-7818.48" xlink:href="#Degradado_sin_nombre_4"/>
    <linearGradient id="Degradado_sin_nombre_4-2" x1="997.63" y1="681.82" x2="812.56" y2="681.82" gradientTransform="translate(0 -322)" xlink:href="#Degradado_sin_nombre_4"/>
    <linearGradient id="Degradado_sin_nombre_4-3" x1="1678.44" y1="384.47" x2="1518.04" y2="384.47" gradientTransform="matrix(1, 0, 0, -1, 0, 747.13)" xlink:href="#Degradado_sin_nombre_4"/>
  </defs>
  <title>iot-test</title>
  <g id="iot-waves">
    <circle class="cls-1" cx="568.51" cy="370.07" r="260.3"/>
    <circle class="cls-2" cx="568.51" cy="373.07" r="185.6"/>
    <circle class="cls-3" cx="568.51" cy="372.57" r="101.8"/>
  </g>
  <g id="iot-int">
    <circle class="cls-4" cx="216.64" cy="358.38" r="180"/>
    <g id="ICON_TAG" data-name="ICON TAG">
      <path class="cls-5" d="M215.54,435.06h0c-16.24,0-55.73-3.41-77.78-5.41a14.7,14.7,0,0,1-13.43-14.84V303a13.85,13.85,0,0,1,12.43-13.63c18.24-1.61,62.74-5.61,80.18-5.61h0c17,0,60.55,3.8,78.39,5.41A13.46,13.46,0,0,1,307.76,303v25.86a4,4,0,0,1-8,0V303a5.85,5.85,0,0,0-5.21-5.81c-17.85-1.61-60.95-5.42-77.59-5.42h0c-17.24,0-61.34,3.81-79.38,5.42a5.5,5.5,0,0,0-5,5.61V414.61a6.78,6.78,0,0,0,6.21,6.82c17.64,1.6,60.54,5.41,77.18,5.41h0c17.24,0,61.14-3.81,79.39-5.41a5.25,5.25,0,0,0,4.81-5.22V357.28a4,4,0,0,1,8,0v59.13a13.3,13.3,0,0,1-12,13.24C277.49,431.05,233,435.06,215.54,435.06Z"/>
      <path class="cls-6" d="M219.75,395c2.61-3,25.46-29.26,25.46-43.9a28.75,28.75,0,0,0-28.67-28.46,28.44,28.44,0,0,0-28.46,28.46c0,14.64,22.85,41.1,25.46,43.9a3.58,3.58,0,0,0,3,1.41A4,4,0,0,0,219.75,395Zm17.44-43.9c0,7.82-11.63,24.46-20.65,35.08-8.82-10.62-20.44-27.26-20.44-35.08a20.55,20.55,0,0,1,41.09,0Z"/>
    </g>
  </g>
  <g id="iot-devices">
    <circle class="cls-4" cx="487.07" cy="119.87" r="90.8"/>
    <path class="cls-7" d="M466.41,88.37h2.2v22.9h-2.2Z"/>
    <path class="cls-7" d="M489.11,102.77a11.93,11.93,0,0,1-.6,3.7,7.85,7.85,0,0,1-1.6,2.8,6.42,6.42,0,0,1-2.5,1.8,7.69,7.69,0,0,1-6.3,0,7.25,7.25,0,0,1-2.5-1.8,7.85,7.85,0,0,1-1.6-2.8,11.4,11.4,0,0,1,0-7.3,9.7,9.7,0,0,1,1.6-2.8,6.42,6.42,0,0,1,2.5-1.8,7.69,7.69,0,0,1,6.3,0,7.25,7.25,0,0,1,2.5,1.8,7.85,7.85,0,0,1,1.6,2.8A10.46,10.46,0,0,1,489.11,102.77Zm-2.3,0a7.85,7.85,0,0,0-1.5-5.1A5.12,5.12,0,0,0,478,97a4.62,4.62,0,0,0-.7.7,7.77,7.77,0,0,0-1.4,5.1,7.85,7.85,0,0,0,1.5,5.1,5.24,5.24,0,0,0,7.4.6l.6-.6A8.39,8.39,0,0,0,486.81,102.77Z"/>
    <path class="cls-7" d="M508.41,88.37v2h-7.3v21h-2.3v-21h-7.3v-2Z"/>
    <path class="cls-7" d="M451.11,139.47a14.4,14.4,0,0,1-.9,5.1,10.4,10.4,0,0,1-2.6,3.6,12,12,0,0,1-4,2.2,14.64,14.64,0,0,1-5.1.7c-.9,0-1.9-.1-2.9-.1a25.12,25.12,0,0,1-2.7-.4v-22.1a25.58,25.58,0,0,1,2.7-.5c1-.1,2-.1,2.9-.1a17.92,17.92,0,0,1,5.1.7,10.26,10.26,0,0,1,6.6,5.8A11.49,11.49,0,0,1,451.11,139.47Zm-15.9,9.5,1,.1a22.6,22.6,0,0,0,2.6.1,12.51,12.51,0,0,0,4.3-.7,8.94,8.94,0,0,0,3.1-1.9,7.67,7.67,0,0,0,1.9-3.1,14,14,0,0,0,0-8.1,7.32,7.32,0,0,0-1.9-3,7.67,7.67,0,0,0-3.1-1.9,12.91,12.91,0,0,0-4.3-.7,22.6,22.6,0,0,0-2.6.1,5.13,5.13,0,0,1-1,.1Z"/>
    <path class="cls-7" d="M455,142.37a12.72,12.72,0,0,1,.6-3.9,10,10,0,0,1,1.7-2.8,8.07,8.07,0,0,1,2.4-1.7,6.63,6.63,0,0,1,2.8-.5,6.29,6.29,0,0,1,5,2,9.47,9.47,0,0,1,1.9,6.3v1h-12a7.61,7.61,0,0,0,1.5,4.8,5.89,5.89,0,0,0,4.6,1.7,13.33,13.33,0,0,0,2.8-.3,9.38,9.38,0,0,0,1.5-.6l.4,1.8a5.78,5.78,0,0,1-1.7.6,10.32,10.32,0,0,1-3,.4,9.86,9.86,0,0,1-3.8-.7,6.77,6.77,0,0,1-2.6-1.8,7.61,7.61,0,0,1-1.5-2.8A10.3,10.3,0,0,1,455,142.37Zm12.1-1.3a6.37,6.37,0,0,0-1.3-4.2,4.62,4.62,0,0,0-5.5-1,6.1,6.1,0,0,0-1.6,1.2,5.44,5.44,0,0,0-1.1,1.8,7.85,7.85,0,0,0-.5,2.2Z"/>
    <path class="cls-7" d="M479.31,148.67a27.29,27.29,0,0,0,1.4-3.3c.5-1.3,1-2.5,1.4-3.8s.9-2.6,1.3-4,.7-2.6,1-3.8h2.1c-.4,1.6-.8,3.1-1.3,4.6l-1.5,4.5c-.5,1.5-1.1,2.8-1.7,4.2s-1.2,2.6-1.7,3.8h-2c-.6-1.2-1.2-2.5-1.7-3.8s-1.1-2.8-1.7-4.2a29.68,29.68,0,0,1-1.5-4.5c-.4-1.6-.9-3.1-1.3-4.6h2.3c.3,1.2.6,2.4,1,3.8s.8,2.7,1.3,4,.9,2.6,1.4,3.8S478.91,147.77,479.31,148.67Z"/>
    <path class="cls-7" d="M492.71,128.77a1.5,1.5,0,0,1-1.5,1.6h-.1a2.1,2.1,0,0,1-1.1-.4,1.85,1.85,0,0,1-.5-1.2,1.35,1.35,0,0,1,.5-1.2,1.19,1.19,0,0,1,1.1-.4,2.1,2.1,0,0,1,1.1.4A1.66,1.66,0,0,1,492.71,128.77Zm-.5,22.2h-2.1v-17.1h2.1Z"/>
    <path class="cls-7" d="M504.91,151.37a10.3,10.3,0,0,1-3.5-.6,6.42,6.42,0,0,1-2.5-1.8,7.61,7.61,0,0,1-1.5-2.8,11.19,11.19,0,0,1-.5-3.6,15.68,15.68,0,0,1,.5-3.7,7.85,7.85,0,0,1,1.6-2.8,6.42,6.42,0,0,1,2.5-1.8,7.45,7.45,0,0,1,3.3-.6,22.75,22.75,0,0,1,2.6.2,7,7,0,0,1,1.9.6l-.6,1.9a8.8,8.8,0,0,0-1.5-.5,8.2,8.2,0,0,0-2.2-.2,5.33,5.33,0,0,0-4.3,1.8,8.13,8.13,0,0,0-1.5,5.2,13.33,13.33,0,0,0,.3,2.8,6.5,6.5,0,0,0,1.1,2.2,5.22,5.22,0,0,0,1.9,1.4,7.1,7.1,0,0,0,2.9.5,8.52,8.52,0,0,0,2.3-.3,4.24,4.24,0,0,0,1.4-.6l.5,1.9a6,6,0,0,1-1.9.6C506.71,151.27,505.81,151.37,504.91,151.37Z"/>
    <path class="cls-7" d="M512,142.37a12.72,12.72,0,0,1,.6-3.9,10,10,0,0,1,1.7-2.8,8.07,8.07,0,0,1,2.4-1.7,6.63,6.63,0,0,1,2.8-.5,6.29,6.29,0,0,1,5,2c1.3,1.4,1.9,3.5,1.9,6.3v1h-12a7.71,7.71,0,0,0,1.6,4.8,5.89,5.89,0,0,0,4.6,1.7,13.33,13.33,0,0,0,2.8-.3,4.71,4.71,0,0,0,1.5-.6l.4,1.8a5.78,5.78,0,0,1-1.7.6,10.32,10.32,0,0,1-3,.4,9.86,9.86,0,0,1-3.8-.7,6.77,6.77,0,0,1-2.6-1.8,7.61,7.61,0,0,1-1.5-2.8A10.39,10.39,0,0,1,512,142.37Zm12.2-1.3a7,7,0,0,0-1.3-4.2,4.62,4.62,0,0,0-5.5-1,6.1,6.1,0,0,0-1.6,1.2,5.44,5.44,0,0,0-1.1,1.8,5.38,5.38,0,0,0-.4,2.2Z"/>
    <path class="cls-7" d="M534.71,149.47a8.15,8.15,0,0,0,3.1-.6,2.09,2.09,0,0,0,1.2-2.1,2.54,2.54,0,0,0-.2-1.2,2.18,2.18,0,0,0-.7-.9,5.67,5.67,0,0,0-1.3-.8c-.5-.2-1.2-.5-2-.9-.6-.3-1.2-.5-1.8-.8a7.84,7.84,0,0,1-1.5-1,6.89,6.89,0,0,1-1.1-1.3,3.92,3.92,0,0,1-.4-1.8,4.12,4.12,0,0,1,1.6-3.4,6.64,6.64,0,0,1,4.3-1.3,14.28,14.28,0,0,1,2.9.3,9.83,9.83,0,0,1,1.6.5l-.5,1.9a6.94,6.94,0,0,0-1.3-.5,6.55,6.55,0,0,0-2.8-.3,3.4,3.4,0,0,0-1.4.2,3.08,3.08,0,0,0-1.2.5,3,3,0,0,0-.8.8,2.55,2.55,0,0,0,0,2.4,6.47,6.47,0,0,0,.8.9,5.39,5.39,0,0,0,1.3.7c.5.2,1.1.5,1.7.7a15.39,15.39,0,0,1,1.9.8,8.64,8.64,0,0,1,1.6,1,4.86,4.86,0,0,1,1.1,1.4,3.44,3.44,0,0,1,.4,2,4,4,0,0,1-1.7,3.5,8,8,0,0,1-4.8,1.2,12.67,12.67,0,0,1-3.4-.4c-.5-.2-1.1-.4-1.6-.6l.6-1.9c.1.1.3.1.4.2l.9.3,1.3.3A11,11,0,0,0,534.71,149.47Z"/>
  </g>
  <g id="iot-cloud">
    <circle class="cls-4" cx="906.81" cy="370.97" r="179.1"/>
    <path class="cls-8" d="M963.51,334.37A56.92,56.92,0,0,0,858,315.47a30.53,30.53,0,0,0-6-.6,31.13,31.13,0,0,0-31.1,31.1,35.73,35.73,0,0,0,.6,6.5,43.25,43.25,0,0,0-17.8,35,46,46,0,0,0,11.8,30.7c7.8,8.8,18.1,14,29.1,14.6h35.1a5.46,5.46,0,1,0,.5-10.9h-35.1c-16.5-1-30.4-16.7-30.4-34.4a32.33,32.33,0,0,1,16-27.9,5.45,5.45,0,0,0,2.4-6.6,20.6,20.6,0,0,1-1.2-7A20.24,20.24,0,0,1,859,327a5.47,5.47,0,0,0,6.9-2.8,45.94,45.94,0,0,1,87.3,15.1,5.52,5.52,0,0,0,4.5,4.9c18,3.1,31.6,19.7,31.6,38.6,0,20.1-15.8,37.5-35.3,39h-29.8a5.46,5.46,0,0,0,0,10.9h30.4a48.11,48.11,0,0,0,32.4-16,50.28,50.28,0,0,0,13.2-33.9C1000.11,360.17,984.61,340,963.51,334.37Z"/>
  </g>
  <g id="iot-ble">
    <circle class="cls-4" cx="675.11" cy="603.17" r="90.8"/>
    <path class="cls-7" d="M655.61,590.37h-1.3c-.5,0-1-.1-1.5-.1a7.72,7.72,0,0,1-1.5-.2,7.38,7.38,0,0,0-1.2-.2v-22.5l1.3-.3a7.72,7.72,0,0,1,1.5-.2c.5,0,1-.1,1.5-.1h1.4a21.86,21.86,0,0,1,3.6.3,10.6,10.6,0,0,1,3,1,5.2,5.2,0,0,1,2,1.9,6,6,0,0,1,.8,2.9,5.09,5.09,0,0,1-1,3.2,4.43,4.43,0,0,1-2.6,1.8,7.31,7.31,0,0,1,1.9.7,4.75,4.75,0,0,1,2.5,2.8,6.61,6.61,0,0,1,.3,2.4,5.64,5.64,0,0,1-2.6,5C662,589.77,659.31,590.37,655.61,590.37Zm-3.3-13.4h4.5a19.42,19.42,0,0,0,2.4-.2,4.38,4.38,0,0,0,1.9-.7,4,4,0,0,0,1.3-1.3,5,5,0,0,0,.5-2.1,3.83,3.83,0,0,0-.5-1.9,4.83,4.83,0,0,0-3.6-2,14.15,14.15,0,0,0-2.9-.2,13.42,13.42,0,0,0-2.1.1,5.9,5.9,0,0,0-1.4.2Zm0,2v9.2c.3,0,.8.1,1.5.2a14.08,14.08,0,0,0,2,.1c1,0,2-.1,3-.2a11.07,11.07,0,0,0,2.6-.7,5.17,5.17,0,0,0,1.8-1.5,4.74,4.74,0,0,0,.2-4.6,3.53,3.53,0,0,0-1.3-1.4,5.79,5.79,0,0,0-2.1-.7,26.35,26.35,0,0,0-2.8-.2Z"/>
    <path class="cls-7" d="M684.51,588.17v2h-13.3v-23.4h2.3v21.4Z"/>
    <path class="cls-7" d="M688.21,590.17v-23.4h13.5v2h-11.2v8.1h10v2h-10v9.3h12.1v2Z"/>
    <path class="cls-7" d="M639.61,619a13,13,0,0,1-1,5.2,9.94,9.94,0,0,1-6.7,5.9,15.21,15.21,0,0,1-5.2.7,16.17,16.17,0,0,1-3-.2,12.82,12.82,0,0,1-2.7-.5v-22.5a25.58,25.58,0,0,1,2.7-.5c1-.1,2-.2,3-.2a18.13,18.13,0,0,1,5.2.7,12.5,12.5,0,0,1,4.1,2.2,8.64,8.64,0,0,1,2.6,3.7A13.67,13.67,0,0,1,639.61,619Zm-16.2,9.6a7.72,7.72,0,0,0,1,.1,24.37,24.37,0,0,0,2.7.1,13.08,13.08,0,0,0,4.4-.7,8.25,8.25,0,0,0,3.2-2,7.67,7.67,0,0,0,1.9-3.1,12.79,12.79,0,0,0,0-8.2,8.94,8.94,0,0,0-1.9-3.1,8.25,8.25,0,0,0-3.2-2,13.08,13.08,0,0,0-4.4-.7,24.37,24.37,0,0,0-2.7.1,5.13,5.13,0,0,1-1,.1Z"/>
    <path class="cls-7" d="M643.61,621.87a10.88,10.88,0,0,1,.7-4,8.75,8.75,0,0,1,1.7-2.8,8.07,8.07,0,0,1,2.4-1.7,7.06,7.06,0,0,1,2.8-.6,6.58,6.58,0,0,1,5.1,2.1c1.3,1.4,1.9,3.5,1.9,6.4v.5a1.09,1.09,0,0,1-.1.5h-12.2a7.24,7.24,0,0,0,1.6,4.9,5.88,5.88,0,0,0,4.7,1.7,12.65,12.65,0,0,0,2.8-.3,9.38,9.38,0,0,0,1.5-.6l.4,1.9a13.36,13.36,0,0,1-1.8.7,11.31,11.31,0,0,1-6.9-.3,8.3,8.3,0,0,1-2.7-1.9,7.3,7.3,0,0,1-1.5-2.9A19.82,19.82,0,0,1,643.61,621.87Zm12.3-1.4a6.37,6.37,0,0,0-1.3-4.2,4.68,4.68,0,0,0-7.1.3,6.7,6.7,0,0,0-1.1,1.8,7.85,7.85,0,0,0-.5,2.2h10Z"/>
    <path class="cls-7" d="M668.41,628.27q.75-1.5,1.5-3.3a35.4,35.4,0,0,0,1.4-3.9c.4-1.4.9-2.7,1.3-4s.7-2.6,1-3.8h2.2c-.4,1.6-.9,3.2-1.3,4.7a34.3,34.3,0,0,1-1.6,4.5c-.6,1.4-1.1,2.9-1.7,4.3s-1.2,2.7-1.8,3.9h-2q-.9-1.8-1.8-3.9c-.6-1.4-1.2-2.8-1.7-4.3s-1.1-3-1.6-4.5-1-3.1-1.4-4.7h2.3c.3,1.2.6,2.5,1,3.8s.8,2.7,1.3,4,1,2.6,1.4,3.9A20.35,20.35,0,0,0,668.41,628.27Z"/>
    <path class="cls-7" d="M682,608a1.66,1.66,0,0,1-.5,1.2,1.69,1.69,0,0,1-2.3,0,1.85,1.85,0,0,1-.5-1.2,1.35,1.35,0,0,1,.5-1.2,1.69,1.69,0,0,1,2.3,0A1.66,1.66,0,0,1,682,608Zm-.5,22.7h-2.2v-17.4h2.2Z"/>
    <path class="cls-7" d="M694.51,631a11.33,11.33,0,0,1-3.6-.6,6.77,6.77,0,0,1-2.6-1.8,9,9,0,0,1-1.6-2.9,13.3,13.3,0,0,1,0-7.4,8.27,8.27,0,0,1,1.6-2.9,9.2,9.2,0,0,1,2.5-1.9,7.84,7.84,0,0,1,3.3-.7,24.52,24.52,0,0,1,2.7.2,6,6,0,0,1,1.9.6l-.6,1.9a8.8,8.8,0,0,0-1.5-.5,16.41,16.41,0,0,0-2.3-.2,5.31,5.31,0,0,0-4.4,1.9,8.24,8.24,0,0,0-1.5,5.3,12.65,12.65,0,0,0,.3,2.8,5.7,5.7,0,0,0,1.1,2.2,6.18,6.18,0,0,0,2,1.5,7.1,7.1,0,0,0,2.9.5,9.86,9.86,0,0,0,2.4-.3,4.24,4.24,0,0,0,1.4-.6l.5,1.9a14.58,14.58,0,0,1-1.9.7A10.9,10.9,0,0,1,694.51,631Z"/>
    <path class="cls-7" d="M701.71,621.87a10.88,10.88,0,0,1,.7-4,8.75,8.75,0,0,1,1.7-2.8,8.07,8.07,0,0,1,2.4-1.7,6.71,6.71,0,0,1,2.8-.6,6.58,6.58,0,0,1,5.1,2.1c1.3,1.4,1.9,3.5,1.9,6.4v1H704a7.24,7.24,0,0,0,1.6,4.9,6.12,6.12,0,0,0,4.7,1.7,12.65,12.65,0,0,0,2.8-.3,9.38,9.38,0,0,0,1.5-.6l.4,1.9a13.36,13.36,0,0,1-1.8.7,11.31,11.31,0,0,1-6.9-.3,8.3,8.3,0,0,1-2.7-1.9,7.85,7.85,0,0,1-1.6-2.8C701.91,624.37,701.71,623.17,701.71,621.87Zm12.4-1.4a7,7,0,0,0-1.3-4.2,4,4,0,0,0-3.4-1.5,3.84,3.84,0,0,0-2.1.5,4,4,0,0,0-1.6,1.3,6.7,6.7,0,0,0-1.1,1.8,7.85,7.85,0,0,0-.5,2.2h10Z"/>
    <path class="cls-7" d="M724.81,629.07a8.15,8.15,0,0,0,3.1-.6,2.09,2.09,0,0,0,1.2-2.1,5,5,0,0,0-.2-1.2,2.18,2.18,0,0,0-.7-.9,9.13,9.13,0,0,0-1.3-.8l-2-.9a15.86,15.86,0,0,1-1.8-.8,5.6,5.6,0,0,1-1.5-1,6.89,6.89,0,0,1-1.1-1.3,4.06,4.06,0,0,1-.4-1.9,4.42,4.42,0,0,1,1.6-3.4,6.92,6.92,0,0,1,4.4-1.3,15.26,15.26,0,0,1,3,.3,7.49,7.49,0,0,1,1.6.5l-.5,2a5.78,5.78,0,0,0-1.4-.5,6.72,6.72,0,0,0-2.8-.3,3.4,3.4,0,0,0-1.4.2,6.12,6.12,0,0,0-1.2.5,3,3,0,0,0-.8.8,2.55,2.55,0,0,0,0,2.4,2.36,2.36,0,0,0,.8.9,5.39,5.39,0,0,0,1.3.7c.5.2,1.1.5,1.7.7a15.39,15.39,0,0,1,1.9.8,8.64,8.64,0,0,1,1.6,1,5.26,5.26,0,0,1,1.2,1.4,3.78,3.78,0,0,1,.4,2.1,4,4,0,0,1-1.8,3.6,8.2,8.2,0,0,1-4.8,1.2,13.42,13.42,0,0,1-3.5-.4c-.6-.2-1.1-.4-1.6-.6l.6-2a.76.76,0,0,0,.4.2l.9.3c.4.1.9.2,1.4.3A9.15,9.15,0,0,0,724.81,629.07Z"/>
  </g>
  <g id="iot-result">
    <circle class="cls-4" cx="1592.36" cy="362.67" r="180"/>
    <path class="cls-9" d="M1676.81,358.47V292a16.73,16.73,0,0,0-16.7-16.7h-135.4A16.73,16.73,0,0,0,1508,292v44.9a10.47,10.47,0,0,0-9.2,10.4v92.3a10.5,10.5,0,0,0,10.5,10.5H1577a10.48,10.48,0,0,0,10.4-9.2H1612a8,8,0,0,0,2.7-.4,10.53,10.53,0,0,0,7.4-12.9l-5.6-20.6H1631v32.6a10.5,10.5,0,0,0,10.5,10.5h33.8a10.65,10.65,0,0,0,10.6-10.5v-70.8A10.35,10.35,0,0,0,1676.81,358.47Zm-98,81.3a1.79,1.79,0,0,1-1.8,1.8h-67.7a1.79,1.79,0,0,1-1.8-1.8v-4.9h71.3Zm0-13.6h-71.3v-65.1h71.3Zm0-73.9h-71.3v-4.9h0a1.79,1.79,0,0,1,1.8-1.8H1577a1.79,1.79,0,0,1,1.8,1.8Zm33.2,80h-24.5v-3.6h25.9l.4,1.3c0,.2.1.3.1.5A2,2,0,0,1,1612,432.27Zm-24.5-25.1h20L1611,420h-23.5Zm43.6-8.7h-43.6v-15.9h43.6Zm0-29.5v4.9h-43.6v-26.4A10.5,10.5,0,0,0,1577,337h-60.2v-44.9a7.92,7.92,0,0,1,7.9-7.9h135.4a7.92,7.92,0,0,1,7.9,7.9v66.4h-26.4A10.5,10.5,0,0,0,1631.11,369Zm46.1,70.8a1.79,1.79,0,0,1-1.8,1.8h-33.8a1.79,1.79,0,0,1-1.8-1.8v-4.9h37.4v4.9Zm0-13.6h-37.4v-43.6h37.4Zm.1-52.3h-37.5V369a1.79,1.79,0,0,1,1.8-1.8h33.8a1.79,1.79,0,0,1,1.8,1.8v4.9Z"/>
  </g>
  <g id="iot-track">
    <g id="iot-track-2" data-name="iot-track">
      <path class="cls-4" d="M568.51,410.07a4.1,4.1,0,0,1-3.1-1.4c-2.7-3-25.9-29.8-25.9-44.6a29,29,0,1,1,57.9-2.9V364c0,14.9-23.3,41.6-25.9,44.6A3.56,3.56,0,0,1,568.51,410.07Zm0-66.8a20.78,20.78,0,0,0-20.8,20.8c0,8,11.7,24.7,20.8,35.7,9.1-10.9,20.8-27.7,20.8-35.7A20.78,20.78,0,0,0,568.51,343.27Z"/>
    </g>
  </g>
  <g id="iot-line">
    <g id="iot-line-2" data-name="iot-line">
      <path class="cls-10" d="M1396.81,438.07l-15,17.4c-64.9,75-180.5,76.6-247.5,3.9l-2.1-2.4-14.8-16.6"/>
    </g>
  </g>
</svg>