<svg
    xmlns="http://www.w3.org/2000/svg" viewBox="0 0 31 31">
    <defs>
        <style>.play_icon{fill:#faffff;}</style>
    </defs>
    <title>play</title>
    <g id="play_icon" data-name="play_icon">
        <g id="play_icon1" data-name="play_icon1">
            <path class="play_icon" d="M15.5,3A12.5,12.5,0,1,1,3,15.5,12.52,12.52,0,0,1,15.5,3m0-3A15.5,15.5,0,1,0,31,15.5,15.5,15.5,0,0,0,15.5,0Z"/>
            <path class="play_icon" d="M13.58,20.64a1.53,1.53,0,0,1-1.18-.57,1.49,1.49,0,0,1,.24-2.1l3.08-2.47L12.64,13a1.5,1.5,0,1,1,1.87-2.34l4.55,3.64a1.5,1.5,0,0,1,0,2.34l-4.55,3.64A1.49,1.49,0,0,1,13.58,20.64Z"/>
        </g>
    </g>
</svg>